name analog
datacolumns 19
datarows 37
range 0.0 0.018000000000000002
endheader
time	ground_force_vx	ground_force_vy	ground_force_vz	ground_force_px	ground_force_py	ground_force_pz	l_ground_force_vx	l_ground_force_vy	l_ground_force_vz	l_ground_force_px	l_ground_force_py	l_ground_force_pz	ground_torque_x	ground_torque_y	ground_torque_z	l_ground_torque_x	l_ground_torque_y	l_ground_torque_z
0.0	-0.0	-0.0	-0.0	-12.528534889221191	26.970388412475582	-328.5566101074219	9.479642868041992	-21.70196533203125	-445.9661254882813	-0.0	-0.0	-0.0	-0.0	-0.0	-0.0	154743.0	-13091.185546875	1598.937744140625
0.0005	-0.0	-0.0	-0.0	-12.757102966308594	26.95326042175293	-328.8664855957031	9.416358947753906	-21.916736602783203	-447.1670837402344	-0.0	-0.0	-0.0	-0.0	-0.0	-0.0	154520.140625	-13003.1162109375	1505.5589599609375
0.001	-0.0	-0.0	-0.0	-12.564360618591309	26.89244079589844	-328.5561828613281	9.098841667175291	-21.790395736694336	-443.771728515625	-0.0	-0.0	-0.0	-0.0	-0.0	-0.0	154180.71875	-12872.259765625	1297.7371826171875
0.0015	-0.0	-0.0	-0.0	-13.078704833984377	27.14537811279297	-329.8700561523437	8.998303413391113	-21.92876625061035	-442.0191345214844	-0.0	-0.0	-0.0	-0.0	-0.0	-0.0	153611.765625	-12994.7998046875	1306.0474853515625
0.002	-0.0	-0.0	-0.0	-12.42510223388672	27.417198181152344	-330.1249084472656	8.375350952148438	-21.853899002075195	-442.7695007324219	-0.0	-0.0	-0.0	-0.0	-0.0	-0.0	153344.125	-12878.625	1152.7681884765625
0.0025	-0.0	-0.0	-0.0	-12.885973930358888	27.377904891967773	-329.92901611328125	8.400005340576172	-21.62511444091797	-441.73095703125	-0.0	-0.0	-0.0	-0.0	-0.0	-0.0	152878.9375	-12735.732421875	1195.397216796875
0.003	-0.0	-0.0	-0.0	-12.806541442871094	27.645463943481445	-330.0657958984375	8.7075834274292	-21.4621696472168	-440.4764404296875	-0.0	-0.0	-0.0	-0.0	-0.0	-0.0	152642.21875	-12735.28125	1289.2877197265625
0.0035	-0.0	-0.0	-0.0	-13.24886417388916	27.452163696289062	-329.9073791503906	8.438283920288086	-21.25743293762207	-439.2882690429688	-0.0	-0.0	-0.0	-0.0	-0.0	-0.0	152292.046875	-12750.314453125	1365.147705078125
0.004	-0.0	-0.0	-0.0	-12.855443954467772	27.824125289916992	-331.2466735839844	9.048500061035156	-21.37384796142578	-439.28912353515625	-0.0	-0.0	-0.0	-0.0	-0.0	-0.0	151815.359375	-12767.6884765625	1365.55224609375
0.0045000000000000005	-0.0	-0.0	-0.0	-13.283427238464355	28.05156135559082	-331.1239013671875	9.190896034240724	-20.628231048583984	-438.9240417480469	-0.0	-0.0	-0.0	-0.0	-0.0	-0.0	151747.8125	-12943.912109375	1390.6685791015625
0.005	-0.0	-0.0	-0.0	-13.024734497070312	27.792917251586918	-331.7609558105469	9.151862144470217	-20.57895278930664	-436.9434814453125	-0.0	-0.0	-0.0	-0.0	-0.0	-0.0	151553.3125	-13037.2421875	1428.5113525390625
0.0055	-0.0	-0.0	-0.0	-12.473470687866213	28.5057430267334	-330.5463562011719	9.403343200683594	-20.682077407836918	-437.4486083984375	-0.0	-0.0	-0.0	-0.0	-0.0	-0.0	151559.4375	-12871.26953125	1497.8389892578125
0.006	-0.0	-0.0	-0.0	-12.667892456054688	28.65132522583008	-333.1451110839844	9.324183464050291	-20.56944465637207	-437.2560119628906	-0.0	-0.0	-0.0	-0.0	-0.0	-0.0	151303.25	-13260.40234375	1641.143310546875
0.006500000000000001	-0.0	-0.0	-0.0	-12.392319679260254	28.926782608032227	-332.18145751953125	9.565552711486816	-20.26520347595215	-437.5468444824219	-0.0	-0.0	-0.0	-0.0	-0.0	-0.0	151236.0	-13273.0654296875	1603.513671875
0.007	-0.0	-0.0	-0.0	-12.237279891967772	29.5263729095459	-334.1430358886719	10.192673683166504	-19.97601127624512	-436.50006103515625	-0.0	-0.0	-0.0	-0.0	-0.0	-0.0	151189.75	-13451.283203125	1798.3653564453125
0.0075	-0.0	-0.0	-0.0	-11.79248332977295	29.299753189086918	-333.7846374511719	10.039878845214844	-19.7840576171875	-435.5227661132813	-0.0	-0.0	-0.0	-0.0	-0.0	-0.0	151196.625	-13427.8818359375	1790.1112060546875
0.008	-0.0	-0.0	-0.0	-11.94702434539795	29.786453247070312	-332.4661560058594	10.443561553955078	-19.75985336303711	-436.7886962890625	-0.0	-0.0	-0.0	-0.0	-0.0	-0.0	151118.4375	-13648.2265625	1930.571044921875
0.0085	-0.0	-0.0	-0.0	-11.72768783569336	30.37950325012207	-335.6161499023437	10.25026512145996	-19.671579360961918	-435.6785583496094	-0.0	-0.0	-0.0	-0.0	-0.0	-0.0	151346.828125	-13490.212890625	2054.43701171875
0.009000000000000001	-0.0	-0.0	-0.0	-11.72780990600586	30.09537124633789	-336.322265625	10.508180618286133	-19.278223037719727	-436.2489929199219	-0.0	-0.0	-0.0	-0.0	-0.0	-0.0	151067.140625	-13644.93359375	2025.1171875
0.0095	-0.0	-0.0	-0.0	-11.76933479309082	30.12152099609375	-336.5805053710937	10.379161834716797	-19.342449188232425	-437.4562377929688	-0.0	-0.0	-0.0	-0.0	-0.0	-0.0	151191.5625	-13651.85546875	2070.8828125
0.01	-0.0	-0.0	-0.0	-11.18769359588623	30.53653907775879	-337.5455322265625	10.418464660644531	-19.342449188232425	-436.1851501464844	-0.0	-0.0	-0.0	-0.0	-0.0	-0.0	151352.8125	-13729.0244140625	2011.59912109375
0.0105	-0.0	-0.0	-0.0	-11.050122261047363	30.904470443725582	-337.7342529296875	10.436511039733888	-19.270721435546875	-435.1085205078125	-0.0	-0.0	-0.0	-0.0	-0.0	-0.0	151300.0	-13813.0185546875	2043.773193359375
0.011	-0.0	-0.0	-0.0	-11.044126510620115	30.70830535888672	-339.3347473144531	10.02431869506836	-19.0368709564209	-434.69378662109375	-0.0	-0.0	-0.0	-0.0	-0.0	-0.0	150956.703125	-13703.8251953125	1900.79248046875
0.0115	-0.0	-0.0	-0.0	-10.907365798950195	30.64271354675293	-339.90289306640625	10.211874008178713	-19.12507057189941	-434.53271484375	-0.0	-0.0	-0.0	-0.0	-0.0	-0.0	151040.109375	-13767.337890625	1819.9027099609373
0.012	-0.0	-0.0	-0.0	-10.794471740722656	31.153688430786133	-338.6788330078125	9.805837631225586	-19.09464263916016	-436.2260437011719	-0.0	-0.0	-0.0	-0.0	-0.0	-0.0	151168.84375	-13587.87109375	1795.696044921875
0.0125	-0.0	-0.0	-0.0	-10.723787307739258	31.088001251220703	-338.5130310058594	9.338409423828123	-19.23045539855957	-436.6950988769531	-0.0	-0.0	-0.0	-0.0	-0.0	-0.0	151413.21875	-13710.0615234375	1603.614990234375
0.013000000000000001	-0.0	-0.0	-0.0	-10.484630584716797	30.993900299072266	-340.0002746582031	9.290916442871094	-19.01890182495117	-437.2311706542969	-0.0	-0.0	-0.0	-0.0	-0.0	-0.0	151917.03125	-13887.146484375	1627.426513671875
0.0135	-0.0	-0.0	-0.0	-10.681833267211914	31.017379760742188	-337.17626953125	9.373834609985352	-19.12456512451172	-438.5575256347656	-0.0	-0.0	-0.0	-0.0	-0.0	-0.0	152073.34375	-13917.17578125	1538.393798828125
0.014	-0.0	-0.0	-0.0	-10.681882858276367	30.81576156616211	-338.0516967773437	9.492053985595703	-19.142314910888672	-440.094482421875	-0.0	-0.0	-0.0	-0.0	-0.0	-0.0	152607.65625	-14162.599609375	1589.8626708984375
0.0145	-0.0	-0.0	-0.0	-10.607973098754885	30.699371337890625	-335.4126892089844	9.244044303894045	-18.789093017578125	-441.0711059570313	-0.0	-0.0	-0.0	-0.0	-0.0	-0.0	153421.15625	-14210.728515625	1567.9359130859375
0.015	-0.0	-0.0	-0.0	-10.460887908935549	30.83911895751953	-335.41375732421875	9.314632415771484	-18.98399543762207	-443.6073303222656	-0.0	-0.0	-0.0	-0.0	-0.0	-0.0	154191.078125	-14248.9599609375	1714.467041015625
0.0155	-0.0	-0.0	-0.0	-10.54646110534668	30.68760681152344	-331.9114685058594	9.51052188873291	-19.012474060058597	-444.4894714355469	-0.0	-0.0	-0.0	-0.0	-0.0	-0.0	154562.078125	-14213.72265625	1752.113037109375
0.016	-0.0	-0.0	-0.0	-10.748224258422852	30.367082595825195	-330.3148193359375	9.758186340332031	-18.766040802001957	-445.7012023925781	-0.0	-0.0	-0.0	-0.0	-0.0	-0.0	154782.0	-14199.4833984375	1696.1376953125
0.0165	-0.0	-0.0	-0.0	-10.3284330368042	30.215206146240234	-328.6400451660156	9.781479835510254	-19.07748413085937	-449.1748046875	-0.0	-0.0	-0.0	-0.0	-0.0	-0.0	155708.4375	-14479.236328125	1833.492431640625
0.017	-0.0	-0.0	-0.0	-10.351311683654783	30.07717514038086	-326.9534606933594	9.916629791259766	-19.05434226989746	-449.26666259765625	-0.0	-0.0	-0.0	-0.0	-0.0	-0.0	156040.375	-14376.45703125	1822.344970703125
0.0175	-0.0	-0.0	-0.0	-10.37137222290039	29.50216293334961	-324.2294921875	9.977974891662598	-18.658945083618164	-451.1038818359375	-0.0	-0.0	-0.0	-0.0	-0.0	-0.0	156645.140625	-14385.0908203125	1953.7647705078125
0.018000000000000002	-0.0	-0.0	-0.0	-10.167641639709473	29.20954704284668	-322.80645751953125	10.116762161254885	-18.54755401611328	-450.7694091796875	-0.0	-0.0	-0.0	-0.0	-0.0	-0.0	156983.0	-14640.5400390625	1946.1026611328125
